<svg width="189" height="172" viewBox="0 0 189 172" fill="none" xmlns="http://www.w3.org/2000/svg">
<path d="M81.3893 52.2896L73.1693 69.9295C72.8921 70.525 72.7694 71.1807 72.8125 71.8361C72.8556 72.4915 73.0631 73.1255 73.4159 73.6795C73.7687 74.2335 74.2553 74.6898 74.8309 75.0061C75.4065 75.3225 76.0525 75.4887 76.7093 75.4895H143.489C144.146 75.4903 144.792 75.6566 145.368 75.973C145.943 76.2893 146.43 76.7455 146.783 77.2996C147.135 77.8536 147.343 78.4876 147.386 79.143C147.429 79.7984 147.306 80.4541 147.029 81.0496L119.029 141.05C118.712 141.723 118.21 142.293 117.581 142.693C116.953 143.093 116.224 143.307 115.479 143.31H43.8793C42.3908 143.309 40.933 143.732 39.6771 144.531C38.4212 145.33 37.4193 146.471 36.7893 147.82L28.5693 165.46C28.2921 166.055 28.1694 166.711 28.2125 167.366C28.2556 168.021 28.4631 168.655 28.8159 169.209C29.1686 169.764 29.6553 170.22 30.2309 170.536C30.8065 170.852 31.4525 171.019 32.1093 171.02H130.619C132.109 171.021 133.568 170.596 134.824 169.795C136.081 168.994 137.082 167.851 137.709 166.5L187.889 58.8995C188.443 57.7072 188.688 56.3945 188.602 55.0826C188.515 53.7706 188.099 52.5016 187.393 51.3927C186.686 50.2838 185.712 49.3706 184.56 48.7374C183.407 48.1042 182.114 47.7713 180.799 47.7695H88.3893C86.9151 47.7865 85.4757 48.2198 84.2372 49.0195C82.9986 49.8193 82.0114 50.9529 81.3893 52.2896Z" fill="#53BCE6"/>
<path d="M111.969 95.52H45.1894C44.5326 95.5192 43.8865 95.353 43.3109 95.0366C42.7353 94.7203 42.2487 94.264 41.8959 93.71C41.5432 93.1559 41.3357 92.522 41.2926 91.8666C41.2495 91.2112 41.3722 90.5555 41.6494 89.96L69.6494 29.96C69.9665 29.2867 70.4687 28.7175 71.0974 28.319C71.726 27.9206 72.4551 27.7094 73.1994 27.71H144.769C146.258 27.711 147.716 27.2871 148.972 26.4882C150.228 25.6893 151.229 24.5486 151.859 23.2L160.089 5.56C160.367 4.96377 160.49 4.30721 160.446 3.651C160.402 2.99479 160.194 2.36015 159.84 1.80585C159.486 1.25155 158.998 0.795451 158.421 0.479801C157.844 0.164151 157.197 -0.000871606 156.539 3.46211e-06H57.9994C56.5095 -0.00128969 55.0504 0.423609 53.7942 1.22449C52.5379 2.02537 51.537 3.16884 50.9094 4.52002L0.729367 112.12C0.175229 113.312 -0.0697219 114.625 0.0170868 115.937C0.103895 117.249 0.519663 118.518 1.22607 119.627C1.93248 120.736 2.90679 121.649 4.05908 122.282C5.21137 122.915 6.50455 123.248 7.81936 123.25H100.199C101.689 123.249 103.147 122.823 104.403 122.022C105.658 121.222 106.66 120.08 107.289 118.73L115.509 101.09C115.789 100.494 115.913 99.8374 115.871 99.1806C115.829 98.5238 115.622 97.8882 115.269 97.3328C114.916 96.7773 114.429 96.3199 113.852 96.0031C113.275 95.6862 112.627 95.52 111.969 95.52V95.52Z" fill="#F38F4B"/>
</svg>
